<svg width="740" height="724" viewBox="0 0 740 724" fill="none" xmlns="http://www.w3.org/2000/svg">
<path fill-rule="evenodd" clip-rule="evenodd" d="M350.207 643.309C232.874 656.222 120.27 757.163 13.2451 712.81C-91.9228 669.226 -99.2781 540.252 -134.321 442.509C-169.053 345.631 -226.064 245.225 -188.868 149.062C-151.834 53.3147 -40.7186 0.444458 57.0895 -52.3571C147.505 -101.168 247.649 -165.588 350.207 -141.958C450.952 -118.745 476.9 -4.3877 549.835 61.1776C605.629 111.335 695.44 130.972 726.008 195.87C757.523 262.779 728.056 336.381 713.009 407.612C695.415 490.898 708.492 594.573 631.171 644.805C553.862 695.03 445.475 632.824 350.207 643.309Z" fill="url(#paint0_radial_22_2956)"/>
<defs>
<radialGradient id="paint0_radial_22_2956" cx="0" cy="0" r="1" gradientUnits="userSpaceOnUse" gradientTransform="translate(309.5 -23) rotate(93.2533) scale(713.65 771.004)">
<stop stop-color="#0D56C1"/>
<stop offset="1" stop-color="#0D264A"/>
</radialGradient>
</defs>
</svg>
