<svg width="500" height="500" viewBox="0 0 500 500" fill="none" xmlns="http://www.w3.org/2000/svg">
<path d="M500 382.4H0V382.65H500V382.4Z" fill="#EBEBEB"/>
<path d="M449.9 398.49H416.78V398.74H449.9V398.49Z" fill="#EBEBEB"/>
<path d="M331.22 401.21H322.53V401.46H331.22V401.21Z" fill="#EBEBEB"/>
<path d="M415.78 389.21H396.59V389.46H415.78V389.21Z" fill="#EBEBEB"/>
<path d="M95.65 390.89H52.46V391.14H95.65V390.89Z" fill="#EBEBEB"/>
<path d="M110.89 390.89H104.56V391.14H110.89V390.89Z" fill="#EBEBEB"/>
<path d="M225.15 395.11H131.47V395.36H225.15V395.11Z" fill="#EBEBEB"/>
<path d="M237 337.8H43.91C42.3973 337.797 40.9475 337.195 39.8789 336.124C38.8102 335.053 38.21 333.603 38.21 332.09V60.66C38.2232 59.156 38.8292 57.718 39.8964 56.6582C40.9637 55.5985 42.406 55.0026 43.91 55H237C238.514 55 239.967 55.6016 241.038 56.6724C242.108 57.7433 242.71 59.1956 242.71 60.71V332.09C242.71 333.604 242.108 335.057 241.038 336.128C239.967 337.198 238.514 337.8 237 337.8ZM43.91 55.2C42.4636 55.2026 41.0774 55.7791 40.0557 56.8027C39.0339 57.8264 38.46 59.2136 38.46 60.66V332.09C38.46 333.536 39.0339 334.924 40.0557 335.947C41.0774 336.971 42.4636 337.547 43.91 337.55H237C238.447 337.547 239.835 336.971 240.858 335.948C241.881 334.924 242.457 333.537 242.46 332.09V60.66C242.457 59.2127 241.881 57.8255 240.858 56.8021C239.835 55.7787 238.447 55.2026 237 55.2H43.91Z" fill="#EBEBEB"/>
<path d="M453.31 337.8H260.21C258.696 337.797 257.246 337.195 256.175 336.125C255.105 335.054 254.503 333.604 254.5 332.09V60.66C254.516 59.1551 255.124 57.7171 256.193 56.6576C257.262 55.5981 258.705 55.0025 260.21 55H453.31C454.812 55.0052 456.252 55.6022 457.317 56.6617C458.382 57.7212 458.987 59.1578 459 60.66V332.09C459 333.601 458.401 335.05 457.335 336.121C456.268 337.191 454.821 337.795 453.31 337.8ZM260.21 55.2C258.763 55.2026 257.375 55.7787 256.352 56.8021C255.329 57.8255 254.753 59.2127 254.75 60.66V332.09C254.753 333.537 255.329 334.924 256.352 335.948C257.375 336.971 258.763 337.547 260.21 337.55H453.31C454.757 337.547 456.145 336.971 457.168 335.948C458.191 334.924 458.767 333.537 458.77 332.09V60.66C458.767 59.2127 458.191 57.8255 457.168 56.8021C456.145 55.7787 454.757 55.2026 453.31 55.2H260.21Z" fill="#EBEBEB"/>
<path d="M461.21 160.7H284.92V336.1H461.21V160.7Z" fill="#F0F0F0"/>
<path d="M454.98 168.84H291.15V216.58H454.98V168.84Z" fill="#E0E0E0"/>
<path d="M300.46 176.57H291.15V216.58H300.46V176.57Z" fill="#EBEBEB"/>
<path d="M345.46 176.57H336.15V216.58H345.46V176.57Z" fill="#EBEBEB"/>
<path d="M396.545 175.563L387.37 177.145L394.167 216.573L403.341 214.992L396.545 175.563Z" fill="#EBEBEB"/>
<path d="M311.99 181.84H302.68V216.58H311.99V181.84Z" fill="#EBEBEB"/>
<path d="M333.38 181.84H324.07V216.58H333.38V181.84Z" fill="#EBEBEB"/>
<path d="M387.38 181.84H378.07V216.58H387.38V181.84Z" fill="#EBEBEB"/>
<path d="M357.689 180.623L348.6 182.642L356.137 216.555L365.226 214.535L357.689 180.623Z" fill="#EBEBEB"/>
<path d="M320.03 174.58H315.38V216.57H320.03V174.58Z" fill="#EBEBEB"/>
<path d="M375.39 174.58H370.74V216.57H375.39V174.58Z" fill="#EBEBEB"/>
<path d="M291.15 271.87H454.98V224.13L291.15 224.13V271.87Z" fill="#E0E0E0"/>
<path d="M445.67 271.87H454.98V231.86H445.67V271.87Z" fill="#EBEBEB"/>
<path d="M400.67 271.87H409.98V231.86H400.67V271.87Z" fill="#EBEBEB"/>
<path d="M342.795 270.277L351.97 271.858L358.766 232.43L349.592 230.848L342.795 270.277Z" fill="#EBEBEB"/>
<path d="M434.14 271.87H443.45V237.13H434.14V271.87Z" fill="#EBEBEB"/>
<path d="M412.75 271.87H422.06V237.13H412.75V271.87Z" fill="#EBEBEB"/>
<path d="M358.75 271.87H368.06V237.13H358.75V271.87Z" fill="#EBEBEB"/>
<path d="M380.146 267.727L389.27 269.775L396.913 235.73L387.789 233.682L380.146 267.727Z" fill="#EBEBEB"/>
<path d="M426.1 271.87H430.75V229.88H426.1V271.87Z" fill="#EBEBEB"/>
<path d="M370.74 271.87H375.39V229.88H370.74V271.87Z" fill="#EBEBEB"/>
<path d="M300.46 231.86H291.15V271.87H300.46V231.86Z" fill="#EBEBEB"/>
<path d="M311.99 237.13H302.68V271.87H311.99V237.13Z" fill="#EBEBEB"/>
<path d="M333.38 237.13H324.07V271.87H333.38V237.13Z" fill="#EBEBEB"/>
<path d="M320.03 229.87H315.38V271.86H320.03V229.87Z" fill="#EBEBEB"/>
<path d="M454.98 279.43H291.15V327.17H454.98V279.43Z" fill="#E0E0E0"/>
<path d="M394.49 287.15H385.18V327.16H394.49V287.15Z" fill="#EBEBEB"/>
<path d="M445.578 286.148L436.403 287.729L443.2 327.158L452.374 325.576L445.578 286.148Z" fill="#EBEBEB"/>
<path d="M361.02 292.43H351.71V327.17H361.02V292.43Z" fill="#EBEBEB"/>
<path d="M382.42 292.43H373.11V327.17H382.42V292.43Z" fill="#EBEBEB"/>
<path d="M436.41 292.43H427.1V327.17H436.41V292.43Z" fill="#EBEBEB"/>
<path d="M406.724 291.212L397.635 293.231L405.172 327.144L414.26 325.124L406.724 291.212Z" fill="#EBEBEB"/>
<path d="M369.06 285.17H364.41V327.16H369.06V285.17Z" fill="#EBEBEB"/>
<path d="M424.42 285.17H419.77V327.16H424.42V285.17Z" fill="#EBEBEB"/>
<path d="M338.524 286.153L329.349 287.735L336.145 327.163L345.32 325.582L338.524 286.153Z" fill="#EBEBEB"/>
<path d="M329.34 292.43H320.03V327.17H329.34V292.43Z" fill="#EBEBEB"/>
<path d="M299.663 291.218L290.575 293.238L298.112 327.151L307.2 325.131L299.663 291.218Z" fill="#EBEBEB"/>
<path d="M317.35 285.17H312.7V327.16H317.35V285.17Z" fill="#EBEBEB"/>
<path d="M37.48 336.1H213.77L213.77 160.7L37.48 160.7L37.48 336.1Z" fill="#F0F0F0"/>
<path d="M43.71 216.57L207.54 216.57V168.83L43.71 168.83V216.57Z" fill="#E0E0E0"/>
<path d="M198.23 216.57H207.54V176.56H198.23V216.57Z" fill="#EBEBEB"/>
<path d="M153.23 216.57H162.54V176.56H153.23V216.57Z" fill="#EBEBEB"/>
<path d="M95.3576 214.985L104.532 216.566L111.329 177.138L102.154 175.556L95.3576 214.985Z" fill="#EBEBEB"/>
<path d="M186.7 216.57H196.01V181.83H186.7V216.57Z" fill="#EBEBEB"/>
<path d="M165.3 216.57H174.61V181.83H165.3V216.57Z" fill="#EBEBEB"/>
<path d="M111.31 216.57H120.62V181.83H111.31V216.57Z" fill="#EBEBEB"/>
<path d="M133.478 214.556L142.566 216.576L150.103 182.664L141.015 180.644L133.478 214.556Z" fill="#EBEBEB"/>
<path d="M178.66 216.57H183.31V174.58H178.66V216.57Z" fill="#EBEBEB"/>
<path d="M123.3 216.57H127.95V174.58H123.3V216.57Z" fill="#EBEBEB"/>
<path d="M207.54 224.13H43.71V271.87H207.54V224.13Z" fill="#E0E0E0"/>
<path d="M53.02 231.86H43.71V271.87H53.02V231.86Z" fill="#EBEBEB"/>
<path d="M98.02 231.86H88.71V271.87H98.02V231.86Z" fill="#EBEBEB"/>
<path d="M149.836 231.879L140.619 233.462L147.42 273.072L156.637 271.489L149.836 231.879Z" fill="#EBEBEB"/>
<path d="M64.55 237.13H55.24V271.87H64.55V237.13Z" fill="#EBEBEB"/>
<path d="M85.94 237.13H76.63V271.87H85.94V237.13Z" fill="#EBEBEB"/>
<path d="M139.94 237.13H130.63V271.87H139.94V237.13Z" fill="#EBEBEB"/>
<path d="M110.249 235.938L101.161 237.958L108.698 271.87L117.786 269.85L110.249 235.938Z" fill="#EBEBEB"/>
<path d="M72.59 229.87H67.94V271.86H72.59V229.87Z" fill="#EBEBEB"/>
<path d="M127.95 229.87H123.3V271.86H127.95V229.87Z" fill="#EBEBEB"/>
<path d="M198.23 271.87H207.54V231.86H198.23V271.87Z" fill="#EBEBEB"/>
<path d="M186.7 271.87H196.01V237.13H186.7V271.87Z" fill="#EBEBEB"/>
<path d="M165.3 271.87H174.61V237.13H165.3V271.87Z" fill="#EBEBEB"/>
<path d="M178.66 271.87H183.31V229.88H178.66V271.87Z" fill="#EBEBEB"/>
<path d="M43.71 327.16H207.54V279.42H43.71V327.16Z" fill="#E0E0E0"/>
<path d="M104.2 327.17H113.51V287.16H104.2V327.17Z" fill="#EBEBEB"/>
<path d="M46.3205 325.581L55.4952 327.162L62.2915 287.734L53.1168 286.152L46.3205 325.581Z" fill="#EBEBEB"/>
<path d="M137.66 327.16H146.97V292.42H137.66V327.16Z" fill="#EBEBEB"/>
<path d="M116.27 327.16H125.58V292.42H116.27V327.16Z" fill="#EBEBEB"/>
<path d="M62.28 327.16H71.59V292.42H62.28V327.16Z" fill="#EBEBEB"/>
<path d="M84.4528 325.147L93.5411 327.167L101.078 293.255L91.9897 291.235L84.4528 325.147Z" fill="#EBEBEB"/>
<path d="M129.63 327.16H134.28V285.17H129.63V327.16Z" fill="#EBEBEB"/>
<path d="M74.27 327.16H78.92V285.17H74.27V327.16Z" fill="#EBEBEB"/>
<path d="M153.387 325.573L162.561 327.155L169.358 287.726L160.183 286.145L153.387 325.573Z" fill="#EBEBEB"/>
<path d="M169.35 327.16H178.66V292.42H169.35V327.16Z" fill="#EBEBEB"/>
<path d="M191.523 325.139L200.611 327.158L208.148 293.246L199.06 291.226L191.523 325.139Z" fill="#EBEBEB"/>
<path d="M181.34 327.16H185.99V285.17H181.34V327.16Z" fill="#EBEBEB"/>
<path d="M252.04 119.26C263.55 119.26 272.88 109.93 272.88 98.4201C272.88 86.9105 263.55 77.5801 252.04 77.5801C240.53 77.5801 231.2 86.9105 231.2 98.4201C231.2 109.93 240.53 119.26 252.04 119.26Z" fill="#E0E0E0"/>
<path d="M252.04 115.94C261.716 115.94 269.56 108.096 269.56 98.4199C269.56 88.7439 261.716 80.8999 252.04 80.8999C242.364 80.8999 234.52 88.7439 234.52 98.4199C234.52 108.096 242.364 115.94 252.04 115.94Z" fill="#EBEBEB"/>
<path d="M252 99.4199C251.85 99.4078 251.705 99.3619 251.575 99.2857C251.445 99.2095 251.334 99.105 251.25 98.98L244 88.23C243.926 88.121 243.875 87.9985 243.849 87.8697C243.823 87.7409 243.822 87.6081 243.847 87.479C243.872 87.35 243.922 87.2271 243.995 87.1174C244.068 87.0078 244.161 86.9135 244.27 86.8399C244.379 86.7664 244.501 86.7151 244.63 86.6888C244.759 86.6626 244.892 86.662 245.021 86.6871C245.15 86.7121 245.273 86.7624 245.383 86.8349C245.492 86.9075 245.586 87.001 245.66 87.11L252.2 96.8099L256.76 91.8099C256.846 91.7035 256.953 91.6157 257.074 91.5522C257.195 91.4886 257.328 91.4505 257.464 91.4403C257.6 91.4301 257.737 91.4479 257.866 91.4928C257.996 91.5376 258.114 91.6085 258.215 91.701C258.316 91.7935 258.396 91.9056 258.452 92.0306C258.508 92.1555 258.537 92.2905 258.538 92.4272C258.54 92.564 258.513 92.6995 258.46 92.8256C258.407 92.9516 258.329 93.0654 258.23 93.16L252.81 99.08C252.71 99.1945 252.585 99.2847 252.444 99.3437C252.304 99.4026 252.152 99.4287 252 99.4199Z" fill="#E0E0E0"/>
<path d="M250 427.56C357.082 427.56 443.89 422.492 443.89 416.24C443.89 409.988 357.082 404.92 250 404.92C142.917 404.92 56.11 409.988 56.11 416.24C56.11 422.492 142.917 427.56 250 427.56Z" fill="#F5F5F5"/>
<path d="M304 276.14L298.3 327.02H336.4L340.9 276.14H304Z" fill="#0D56C1"/>
<path opacity="0.3" d="M304 276.14L298.3 327.02H331.97L336.47 276.14H304Z" fill="white"/>
<path opacity="0.1" d="M336.47 276.14L331.97 327.02H336.4L340.9 276.14H336.47Z" fill="white"/>
<path d="M353.65 286.46H294.09C293.649 286.461 293.212 286.372 292.807 286.198C292.401 286.025 292.035 285.772 291.73 285.453C291.425 285.134 291.188 284.757 291.034 284.344C290.879 283.931 290.81 283.491 290.83 283.05L294.43 207.95C294.469 207.114 294.828 206.326 295.433 205.748C296.039 205.171 296.843 204.849 297.68 204.85H357.56L353.65 286.46Z" fill="#0D56C1"/>
<path opacity="0.2" d="M352.61 204.85L348.7 286.46H353.65L357.56 204.85H352.61Z" fill="white"/>
<path opacity="0.1" d="M347.15 208.34L343.6 282.62C343.577 283.115 343.655 283.61 343.828 284.074C344.002 284.539 344.267 284.963 344.609 285.322C344.952 285.681 345.363 285.967 345.818 286.162C346.274 286.358 346.764 286.459 347.26 286.46H348.7L352.61 204.85H350.82C349.878 204.851 348.972 205.214 348.289 205.863C347.606 206.513 347.199 207.399 347.15 208.34Z" fill="black"/>
<path d="M293.24 328.84L293.71 344.41L295.83 414.84H302.83L304.94 344.41L305.41 328.84H293.24Z" fill="#0D56C1"/>
<path opacity="0.4" d="M293.24 328.84L293.71 344.41L295.83 414.84H302.83L304.94 344.41L305.41 328.84H293.24Z" fill="white"/>
<path opacity="0.2" d="M293.24 328.84L293.71 344.84H304.94L305.41 328.84H293.24Z" fill="black"/>
<path d="M255.22 414.59L261.69 329.94H272.26L263.21 414.59H255.22Z" fill="#0D56C1"/>
<path opacity="0.5" d="M263.23 414.59H255.23L261.1 337.54L261.69 329.84H272.26L271.44 337.54L263.23 414.59Z" fill="white"/>
<path opacity="0.2" d="M272.26 329.84L271.44 337.84H261.1L261.69 329.84H272.26Z" fill="black"/>
<path d="M335.45 414.59L326.39 329.94H336.96L343.43 414.59H335.45Z" fill="#0D56C1"/>
<path opacity="0.5" d="M335.43 414.59L327.21 337.54L326.4 329.84H336.97L337.55 337.54L343.42 414.59H335.43Z" fill="white"/>
<path opacity="0.2" d="M326.4 329.84L327.21 337.84H337.55L336.97 329.84H326.4Z" fill="black"/>
<path d="M342.65 332.86H256.05V326.17C256.05 324.844 256.577 323.572 257.514 322.635C258.452 321.697 259.724 321.17 261.05 321.17H337.65C338.976 321.17 340.248 321.697 341.186 322.635C342.123 323.572 342.65 324.844 342.65 326.17V332.86Z" fill="#0D56C1"/>
<path d="M253.88 332.87H344.76C345.87 332.87 346.77 331.97 346.77 330.86V329.04C346.77 327.93 345.87 327.03 344.76 327.03H253.88C252.77 327.03 251.87 327.93 251.87 329.04V330.86C251.87 331.97 252.77 332.87 253.88 332.87Z" fill="#0D56C1"/>
<path opacity="0.6" d="M253.88 332.87H344.76C345.87 332.87 346.77 331.97 346.77 330.86V329.04C346.77 327.93 345.87 327.03 344.76 327.03H253.88C252.77 327.03 251.87 327.93 251.87 329.04V330.86C251.87 331.97 252.77 332.87 253.88 332.87Z" fill="white"/>
<path opacity="0.1" d="M328.73 321.18H314.08L285.13 320L285.59 321.92L263.19 322.1L262.04 322.42L263.19 332.86H289.12L287.25 323.45C297.29 323.39 322.8 325.71 328.73 321.18Z" fill="black"/>
<path d="M269.62 240.71C269.62 240.71 241.23 246.71 239.62 246.97C238.01 247.23 230.42 244.97 228.96 245.18C227.5 245.39 225.11 252.24 224.96 253.77C224.81 255.3 236.87 256.43 237.96 256.01C239.132 255.382 240.24 254.641 241.27 253.8L270.96 250.67L269.62 240.71Z" fill="#E6AE76"/>
<path d="M325.05 201.96L309.28 202.75L305.73 206.92L325.81 206.48L325.05 201.96Z" fill="#0D56C1"/>
<path d="M294.44 227.6C294.44 227.6 294.16 228.36 293.65 229.6C293.14 230.84 292.36 232.73 291.41 234.79C289.11 239.79 285.77 246.15 282.28 249.58C281.403 250.502 280.349 251.237 279.18 251.74C275.46 253.17 266.31 253.84 257.98 253.74C249.65 253.64 242.35 254.42 242.35 254.42V245.58L269.74 239.22C269.74 239.22 284.18 213.35 292.74 209.49L294.44 227.6Z" fill="#263238"/>
<path opacity="0.2" d="M293.65 229.61C293.13 230.91 292.36 232.74 291.41 234.8C289.11 239.8 285.77 246.16 282.28 249.59C278.73 236.51 291.86 224.06 291.86 224.06L293.65 229.61Z" fill="black"/>
<path d="M290.11 408.88L282.15 407.78L281.04 388.85L289 389.95L290.11 408.88Z" fill="#E6AE76"/>
<path opacity="0.2" d="M289 389.95L281.04 388.86L281.68 399.68L289.62 400.38L289 389.95Z" fill="black"/>
<path d="M289.79 297.56L291.74 285.38L336.4 282.71C336.4 282.71 341.15 308.05 337.5 314.8C330.98 326.85 295.88 320.8 285.61 321.95C291.75 347.06 291.15 396.13 291.15 396.13L276.48 397.25C276.48 397.25 265.19 344.38 262.91 319.25C261.37 302.3 275.41 302.72 289.79 297.56Z" fill="#0D56C1"/>
<path d="M271.74 401.81L263.72 402.39L258.69 384.1L266.7 383.52L271.74 401.81Z" fill="#E6AE76"/>
<path d="M262.63 402.67H262.5C262.5 402.55 262.1 400.31 261.12 399.77C260.995 399.711 260.858 399.68 260.72 399.68C260.582 399.68 260.445 399.711 260.32 399.77C260.167 399.817 260.035 399.916 259.946 400.049C259.857 400.181 259.816 400.341 259.83 400.5C260.027 401.165 260.447 401.74 261.02 402.13C260.287 401.881 259.489 401.902 258.77 402.19C258.676 402.262 258.602 402.357 258.555 402.465C258.508 402.574 258.489 402.692 258.5 402.81C258.484 403 258.523 403.19 258.612 403.358C258.7 403.526 258.835 403.666 259 403.76C259.501 403.96 260.059 403.96 260.56 403.76C261.257 403.558 261.928 403.276 262.56 402.92C262.57 402.927 262.582 402.931 262.595 402.931C262.608 402.931 262.62 402.927 262.63 402.92C262.63 402.92 262.63 402.92 262.63 402.86C262.647 402.85 262.66 402.837 262.67 402.82C262.68 402.803 262.685 402.784 262.685 402.765C262.685 402.746 262.68 402.727 262.67 402.71C262.66 402.694 262.647 402.68 262.63 402.67ZM260.22 400.43C260.22 400.32 260.22 400.18 260.49 400.07H260.58C260.652 400.05 260.727 400.046 260.801 400.056C260.875 400.066 260.946 400.091 261.01 400.13C261.59 400.44 262.01 401.65 262.18 402.39L262 402.34C261.21 401.87 260.29 401 260.22 400.43ZM259.17 403.36C259.071 403.295 258.991 403.206 258.937 403.101C258.882 402.996 258.856 402.878 258.86 402.76C258.854 402.701 258.864 402.641 258.888 402.586C258.913 402.532 258.952 402.485 259 402.45C259.45 402.11 260.92 402.4 262 402.72C260.67 403.38 259.64 403.62 259.17 403.36Z" fill="#0D56C1"/>
<path opacity="0.2" d="M266.7 383.52L258.69 384.11L261.57 394.57L269.48 393.6L266.7 383.52Z" fill="black"/>
<path d="M256 393.28L270.12 389.13C270.12 389.13 261.69 341.55 253.12 325.05C253.76 324.84 254.61 324.57 255.66 324.26C257.55 323.69 260.06 322.98 263.01 322.16C283.53 316.47 325.12 305.8 325.12 305.8L306.12 288.07C306.12 288.07 230.44 299.61 228.87 319.55C228.12 329.14 256 393.28 256 393.28Z" fill="#0D56C1"/>
<path opacity="0.2" d="M255.66 324.26C257.55 323.69 260.24 322.93 263.19 322.11C262.6 317.27 262.41 311.77 264.74 308.94C269.37 303.3 281.28 299.99 288.06 298.79C293.73 297.79 312.78 295.79 312.78 295.79C312.78 295.79 288.06 293.42 262.78 300.79C250.3 304.45 252.73 316.66 255.66 324.26Z" fill="black"/>
<path d="M338.88 295.44C341.88 293.15 338.99 271.85 340.52 250.89C342.85 219 340.52 208.75 338.17 207.76C333.835 207.003 329.449 206.568 325.05 206.46C318.607 206.222 312.157 206.358 305.73 206.87C301.335 207.417 296.989 208.303 292.73 209.52C292.73 209.52 282.21 243.01 288.93 291.27L338.88 295.44Z" fill="#263238"/>
<path opacity="0.1" d="M338.88 295.44C341.88 293.15 338.99 271.85 340.52 250.89C342.85 219 340.52 208.75 338.17 207.76C333.835 207.003 329.449 206.568 325.05 206.46C318.607 206.222 312.157 206.358 305.73 206.87C301.335 207.417 296.989 208.303 292.73 209.52C292.73 209.52 282.21 243.01 288.93 291.27L338.88 295.44Z" fill="white"/>
<path d="M322.67 184.8C321.58 191.04 320.61 202.45 325.05 206.51C323.251 208.44 321.087 209.994 318.684 211.084C316.282 212.174 313.687 212.777 311.05 212.86C303.05 213.21 305.74 206.92 305.74 206.92C312.64 205.12 312.35 199.98 311.04 195.17L322.67 184.8Z" fill="#E6AE76"/>
<path opacity="0.2" d="M317.93 189L311 195.17C311.318 196.289 311.542 197.433 311.67 198.59C314.31 198.15 319.99 192.51 320.22 189.73C320.39 188.61 318.2 190.13 317.93 189Z" fill="black"/>
<path d="M307.55 168.65C311 170.99 309.43 174.96 301.63 181.16C298.46 177.05 297.93 169.08 300.45 167.07C302.97 165.06 304.54 166.63 307.55 168.65Z" fill="#263238"/>
<path d="M322.38 175.08C322 183.51 322.21 188.45 318.04 192.85C311.75 199.45 301.3 195.78 299.14 187.41C297.22 179.89 298.14 167.41 306.33 163.88C308.13 163.104 310.099 162.8 312.049 162.998C313.999 163.196 315.866 163.889 317.474 165.01C319.082 166.132 320.376 167.646 321.235 169.408C322.093 171.17 322.487 173.123 322.38 175.08Z" fill="#E6AE76"/>
<path d="M309.85 177.6C309.85 178.29 309.5 178.85 309.05 178.85C308.6 178.85 308.24 178.32 308.23 177.63C308.22 176.94 308.57 176.39 309.01 176.37C309.45 176.35 309.79 176.93 309.85 177.6Z" fill="#263238"/>
<path d="M302.06 177.74C302.06 178.43 301.71 178.99 301.27 179C300.83 179.01 300.44 178.46 300.43 177.77C300.42 177.08 300.77 176.52 301.22 176.52C301.67 176.52 302.05 177.06 302.06 177.74Z" fill="#263238"/>
<path d="M304.6 178C303.818 180.109 302.752 182.101 301.43 183.92C301.907 184.243 302.447 184.459 303.015 184.554C303.583 184.649 304.164 184.62 304.72 184.47L304.6 178Z" fill="#D08245"/>
<path d="M311.93 175.11C312.021 175.12 312.113 175.099 312.19 175.05C312.274 174.983 312.328 174.886 312.341 174.779C312.355 174.673 312.325 174.565 312.26 174.48C311.877 173.97 311.378 173.558 310.804 173.28C310.23 173.001 309.598 172.864 308.96 172.88C308.909 172.881 308.859 172.893 308.813 172.914C308.767 172.935 308.725 172.965 308.691 173.002C308.656 173.039 308.629 173.083 308.612 173.131C308.595 173.179 308.587 173.229 308.59 173.28C308.605 173.385 308.658 173.481 308.739 173.549C308.82 173.618 308.924 173.654 309.03 173.65C309.533 173.644 310.03 173.758 310.481 173.982C310.931 174.207 311.322 174.535 311.62 174.94C311.656 174.99 311.702 175.031 311.756 175.06C311.809 175.09 311.869 175.107 311.93 175.11Z" fill="#263238"/>
<path d="M298.47 175.18C298.546 175.176 298.62 175.152 298.683 175.11C298.747 175.068 298.797 175.009 298.83 174.94C299.03 174.478 299.336 174.07 299.724 173.748C300.111 173.427 300.569 173.201 301.06 173.09C301.166 173.073 301.262 173.015 301.327 172.93C301.392 172.844 301.422 172.737 301.41 172.63C301.393 172.526 301.337 172.432 301.253 172.367C301.17 172.302 301.065 172.271 300.96 172.28C300.331 172.41 299.743 172.69 299.245 173.096C298.748 173.501 298.355 174.021 298.1 174.61C298.055 174.706 298.05 174.815 298.086 174.914C298.122 175.013 298.195 175.095 298.29 175.14C298.347 175.165 298.408 175.179 298.47 175.18Z" fill="#263238"/>
<path d="M318.9 167.68C314.98 169.09 315.54 173.33 321.58 181.25C325.66 178.04 328.13 170.42 326.17 167.87C324.21 165.32 322.31 166.45 318.9 167.68Z" fill="#263238"/>
<path d="M326.5 181.75C326.228 182.765 325.759 183.717 325.119 184.551C324.479 185.385 323.681 186.085 322.77 186.61C320.32 187.99 318.43 185.96 318.55 183.3C318.65 180.91 320.06 177.3 322.78 177.01C325.5 176.72 327.17 179.23 326.5 181.75Z" fill="#E6AE76"/>
<path d="M311 185.89C311 185.89 309.54 188.65 305.46 188.52" stroke="#263238" stroke-width="0.526291" stroke-linecap="round" stroke-linejoin="round"/>
<path d="M310.35 166.34C310.35 166.34 311.6 174.78 319.73 175.34C327.86 175.9 327.6 171 327.6 171C328.2 169.741 328.512 168.365 328.512 166.97C328.512 165.576 328.2 164.199 327.6 162.94C325.73 159.24 315.77 160.39 311.04 159.49C290.93 154.16 291.04 160.24 295.1 168.49C295.1 168.49 293.78 171.64 298.66 174.01C298.66 174 299.59 165.45 310.35 166.34Z" fill="#263238"/>
<path d="M296.52 246.1C296.52 246.1 267.52 245.44 265.88 245.27C264.24 245.1 257.38 241.27 255.88 241.07C254.38 240.87 250.5 247.07 250.02 248.51C249.54 249.95 261.02 253.84 262.12 253.68C263.405 253.338 264.654 252.872 265.85 252.29L295.46 256.1L296.52 246.1Z" fill="#E6AE76"/>
<path opacity="0.2" d="M341.39 234.48C337.08 241.48 331.05 248.93 325.04 248.58C318.75 248.21 325.04 235.37 331.85 224.19C332.102 224.701 332.325 225.225 332.52 225.76C334.05 230.04 338.72 224.76 341.1 217.88C341.505 223.404 341.602 228.946 341.39 234.48Z" fill="black"/>
<path d="M262.93 401.58L271.61 399.16C271.681 399.135 271.756 399.125 271.831 399.129C271.906 399.134 271.979 399.154 272.046 399.187C272.113 399.221 272.173 399.268 272.222 399.325C272.271 399.382 272.307 399.448 272.33 399.52L274.67 406.28C274.72 406.46 274.734 406.649 274.71 406.835C274.687 407.021 274.627 407.2 274.534 407.363C274.441 407.526 274.317 407.668 274.169 407.783C274.02 407.897 273.851 407.981 273.67 408.03C270.67 408.82 269.13 409.03 265.3 410.09C262.95 410.74 258.38 412.24 255.03 412.62C251.68 413 251.39 409.68 252.78 409.22C256.05 408.13 259.98 404.71 261.68 402.39C261.993 401.986 262.434 401.701 262.93 401.58Z" fill="#263238"/>
<path d="M281.35 407.8C281.35 407.66 281.22 405.39 280.35 404.66C280.092 404.477 279.773 404.402 279.46 404.45C279.297 404.467 279.143 404.535 279.021 404.645C278.899 404.754 278.815 404.9 278.78 405.06C278.808 405.75 279.089 406.405 279.57 406.9C278.899 406.503 278.108 406.357 277.34 406.49C277.23 406.539 277.134 406.617 277.064 406.716C276.994 406.814 276.951 406.929 276.94 407.05C276.892 407.227 276.893 407.414 276.945 407.591C276.996 407.767 277.095 407.926 277.23 408.05C277.687 408.332 278.231 408.439 278.76 408.35C279.469 408.28 280.169 408.14 280.85 407.93H281C281 407.93 281 407.93 281 407.87C281 407.81 281.2 407.87 281.2 407.79H281.37L281.35 407.8ZM279.14 405.13C279.14 405.02 279.21 404.89 279.48 404.84H279.57C279.644 404.835 279.719 404.845 279.789 404.869C279.86 404.893 279.924 404.931 279.98 404.98C280.458 405.709 280.696 406.569 280.66 407.44L280.49 407.35C279.792 406.793 279.314 406.006 279.14 405.13ZM277.5 407.78C277.415 407.697 277.354 407.593 277.325 407.479C277.295 407.364 277.296 407.243 277.33 407.13C277.334 407.071 277.354 407.014 277.388 406.965C277.421 406.915 277.467 406.876 277.52 406.85C278.03 406.62 279.41 407.2 280.38 407.74C279 408.11 277.9 408.13 277.5 407.78Z" fill="#0D56C1"/>
<path d="M281.55 406.82L290.55 406.26C290.624 406.252 290.7 406.258 290.771 406.28C290.843 406.301 290.91 406.337 290.968 406.384C291.025 406.432 291.073 406.49 291.108 406.557C291.143 406.623 291.164 406.695 291.17 406.77L292.06 413.87C292.082 414.242 291.957 414.608 291.712 414.888C291.467 415.169 291.121 415.342 290.75 415.37C287.6 415.52 286.09 415.43 282.13 415.64C279.7 415.79 274.91 416.31 271.56 415.98C268.21 415.65 268.61 412.35 270.06 412.19C273.5 411.8 278.06 409.28 280.2 407.36C280.577 407.034 281.052 406.844 281.55 406.82Z" fill="#263238"/>
<path d="M338.17 207.76C333.391 210.125 329.461 213.912 326.92 218.6C322.34 226.68 314.39 243.8 311.04 244.65C307.69 245.5 267.8 243.78 267.8 243.78L266.23 254.05C266.23 254.05 310.8 261.54 318.89 257.4C326.98 253.26 353 213.1 338.17 207.76Z" fill="#263238"/>
<path opacity="0.3" d="M305.73 206.92C300.03 210.86 298.03 226.6 298.03 226.6C297.03 233.2 297.24 235.23 301.43 236.05C311.89 238.45 316.63 233.24 317.53 227.95C317.53 227.95 320.73 210.56 325.82 206.48L311.53 212.88L305.73 206.92Z" fill="white"/>
<path d="M305.73 206.92C300.03 210.86 298.03 226.6 298.03 226.6C297.03 233.2 297.24 235.23 301.43 236.05C311.89 238.45 316.63 233.24 317.53 227.95C317.53 227.95 320.73 210.56 325.82 206.48L311.53 212.88L305.73 206.92Z" fill="#0D56C1"/>
<path opacity="0.5" d="M305.73 206.92C300.03 210.86 298.03 226.6 298.03 226.6C297.03 233.2 297.24 235.23 301.43 236.05C311.89 238.45 316.63 233.24 317.53 227.95C317.53 227.95 320.73 210.56 325.82 206.48L311.53 212.88L305.73 206.92Z" fill="white"/>
<path d="M311.53 212.88L314.08 205.79L325.05 201.96L325.81 206.48L311.53 212.88Z" fill="#0D56C1"/>
<path opacity="0.05" d="M311.53 212.88L314.08 205.79L325.05 201.96L325.81 206.48L311.53 212.88Z" fill="white"/>
<path d="M314.08 205.79L317.15 212.88L325.81 206.48L325.05 201.96L314.08 205.79Z" fill="#0D56C1"/>
<path opacity="0.2" d="M314.08 205.79L317.15 212.88L325.81 206.48L325.05 201.96L314.08 205.79Z" fill="white"/>
<path d="M311.53 212.88L308.59 205.77L309.28 202.75L305.73 206.92L311.53 212.88Z" fill="#0D56C1"/>
<path opacity="0.05" d="M311.53 212.88L308.59 205.77L309.28 202.75L305.73 206.92L311.53 212.88Z" fill="white"/>
<path d="M308.59 205.77L305.5 213.55L305.73 206.92L309.28 202.75L308.59 205.77Z" fill="#0D56C1"/>
<path opacity="0.2" d="M308.59 205.77L305.5 213.55L305.73 206.92L309.28 202.75L308.59 205.77Z" fill="white"/>
<path d="M129.437 214.986L127.236 215.457L131.125 233.625L133.325 233.154L129.437 214.986Z" fill="#0D56C1"/>
<path opacity="0.3" d="M129.437 214.986L127.236 215.457L131.125 233.625L133.325 233.154L129.437 214.986Z" fill="white"/>
<path d="M136.92 213.21H134.67V231.79H136.92V213.21Z" fill="#0D56C1"/>
<path opacity="0.3" d="M136.92 213.21H134.67V231.79H136.92V213.21Z" fill="white"/>
<path d="M147.156 217.493L145.015 216.802L139.31 234.484L141.451 235.175L147.156 217.493Z" fill="#0D56C1"/>
<path opacity="0.3" d="M147.156 217.493L145.015 216.802L139.31 234.484L141.451 235.175L147.156 217.493Z" fill="white"/>
<path d="M129 231.8H144.78V252.93C144.78 253.346 144.698 253.759 144.539 254.143C144.379 254.528 144.146 254.877 143.852 255.172C143.557 255.466 143.208 255.699 142.823 255.859C142.439 256.018 142.026 256.1 141.61 256.1H132.2C131.359 256.1 130.553 255.766 129.958 255.172C129.364 254.577 129.03 253.771 129.03 252.93V231.8H129Z" fill="#0D56C1"/>
<path opacity="0.1" d="M129 231.8H144.78V252.93C144.78 253.346 144.698 253.759 144.539 254.143C144.379 254.528 144.146 254.877 143.852 255.172C143.557 255.466 143.208 255.699 142.823 255.859C142.439 256.018 142.026 256.1 141.61 256.1H132.2C131.359 256.1 130.553 255.766 129.958 255.172C129.364 254.577 129.03 253.771 129.03 252.93V231.8H129Z" fill="white"/>
<path d="M350.86 362.64L349.29 365.57V368.42L352.66 369.62L357.16 369.17L356.19 365.72L350.86 362.64Z" fill="#0D56C1"/>
<path opacity="0.3" d="M350.86 362.64L349.29 365.57V368.42L352.66 369.62L357.16 369.17L356.19 365.72L350.86 362.64Z" fill="white"/>
<path opacity="0.3" d="M350.11 365.34L352.36 366.13V368.72L351.76 367.03L350.71 367.44L351.24 366.54L350.11 365.34Z" fill="#263238"/>
<path opacity="0.3" d="M354.01 366.13H355.65L356.71 368.72L355.36 367.03L354.01 366.13Z" fill="#263238"/>
<path d="M345.28 371.75L341.9 369.24L344 365.53L348.5 364.48L351.05 366.5L350.6 371.75H345.28Z" fill="#0D56C1"/>
<path opacity="0.2" d="M345.28 371.75L341.9 369.24L344 365.53L348.5 364.48L351.05 366.5L350.6 371.75H345.28Z" fill="white"/>
<path opacity="0.3" d="M342.58 369.06L345.5 368.12L348.35 369.06L350.15 371.38L347.38 369.62L345.43 370.18V368.75L342.58 369.06Z" fill="#263238"/>
<path opacity="0.3" d="M344.9 366.13L346.48 367.33H348.13L349.7 366.73H347.3L344.9 366.13Z" fill="#263238"/>
<path d="M358.77 363.75L356.29 367.27L358.77 371.1L360.94 370.57L363.87 370.65L365.07 367.42L360.68 363.75H358.77Z" fill="#0D56C1"/>
<path opacity="0.2" d="M358.77 363.75L356.29 367.27L358.77 371.1L360.94 370.57L363.87 370.65L365.07 367.42L360.68 363.75H358.77Z" fill="white"/>
<path opacity="0.3" d="M357.12 366.95H359.74L359.07 370.27L358.92 367.8L357.12 366.95Z" fill="#263238"/>
<path opacity="0.3" d="M360.44 369.9L360.68 366.95L364.24 367.8L362.34 368.25L363.19 369.9L361.39 367.8L360.44 369.9Z" fill="#263238"/>
<path opacity="0.3" d="M358.43 365.66L359.74 364.87L361.39 365.66L363.12 366.95L359.74 365.66H358.43Z" fill="#263238"/>
<path d="M360.77 365.08L362.73 371L366.17 371.75L370.97 370.78L373.37 367.56L371.12 362.68L364.15 362.15L360.77 365.08Z" fill="#0D56C1"/>
<path opacity="0.1" d="M360.77 365.08L362.73 371L366.17 371.75L370.97 370.78L373.37 367.56L371.12 362.68L364.15 362.15L360.77 365.08Z" fill="white"/>
<path opacity="0.3" d="M363.31 369.76L365.4 367.39L368.27 367.51L368.66 369.9L367.76 368.35L365.72 368.15L363.31 369.76Z" fill="#263238"/>
<path opacity="0.3" d="M369.1 367.25L371.72 366.83L372.9 367.39L371 370.26L372.23 367.68L371.53 367.39L369.1 367.25Z" fill="#263238"/>
<path opacity="0.3" d="M363.17 368.35L361.37 365.29L363.85 363.74L368.66 364.92L364.37 364.47L362.36 365.65L363.17 368.35Z" fill="#263238"/>
<path opacity="0.3" d="M365.99 362.78L370.41 363.18L372.17 366.05L370.09 363.74L365.99 362.78Z" fill="#263238"/>
<path d="M340.36 370.8H374.91V411.45C374.91 412.689 374.418 413.876 373.542 414.752C372.666 415.628 371.479 416.12 370.24 416.12H345C343.761 416.12 342.574 415.628 341.698 414.752C340.822 413.876 340.33 412.689 340.33 411.45V370.8H340.36Z" fill="#0D56C1"/>
<path opacity="0.3" d="M340.36 370.8H374.91V411.45C374.91 412.689 374.418 413.876 373.542 414.752C372.666 415.628 371.479 416.12 370.24 416.12H345C343.761 416.12 342.574 415.628 341.698 414.752C340.822 413.876 340.33 412.689 340.33 411.45V370.8H340.36Z" fill="white"/>
<path d="M341.13 368.64H374.13C374.467 368.64 374.79 368.774 375.028 369.012C375.266 369.25 375.4 369.573 375.4 369.91V371.28H339.86V369.91C339.86 369.573 339.994 369.25 340.232 369.012C340.47 368.774 340.793 368.64 341.13 368.64Z" fill="#0D56C1"/>
<path opacity="0.4" d="M341.13 368.64H374.13C374.467 368.64 374.79 368.774 375.028 369.012C375.266 369.25 375.4 369.573 375.4 369.91V371.28H339.86V369.91C339.86 369.573 339.994 369.25 340.232 369.012C340.47 368.774 340.793 368.64 341.13 368.64Z" fill="white"/>
<path d="M177.76 281.31H165.31V416.24H177.76V281.31Z" fill="#0D56C1"/>
<path opacity="0.4" d="M177.77 281.24H171.31V416.17H177.77V281.24Z" fill="black"/>
<path d="M386.28 281.24H379.82V416.17H386.28V281.24Z" fill="#0D56C1"/>
<path d="M104.48 281.24H98.02V416.17H104.48V281.24Z" fill="#0D56C1"/>
<path d="M392.91 416.13H386.45V281.27H283.55V416.13H271.74V281.27H98.45V416.13H92.53V256.1H392.91V416.13Z" fill="#0D56C1"/>
<path opacity="0.1" d="M392.91 416.13H386.45V281.27H283.55V416.13H277.16V263.95H392.91V416.13Z" fill="white"/>
<path opacity="0.3" d="M392.91 256.1H277.16V263.95H392.91V256.1Z" fill="black"/>
<path opacity="0.1" d="M277.23 256.1H92.53V263.95H277.23V256.1Z" fill="black"/>
<path opacity="0.4" d="M277.24 416.13L271.56 415.99L271.74 281.27H98.45V416.13H92.53V263.95H277.24V416.13Z" fill="white"/>
<path opacity="0.4" d="M104.48 281.24H98.02V416.17H104.48V281.24Z" fill="black"/>
<path opacity="0.4" d="M386.28 281.24H379.82V416.17H386.28V281.24Z" fill="black"/>
<path d="M192.48 252.1V254.74C192.48 255.54 193.85 256.1 194.63 256.1H256.43C257.22 256.1 258.48 255.54 258.48 254.74V252.1H192.48Z" fill="#263238"/>
<path opacity="0.6" d="M192.48 252.1V254.74C192.48 255.54 193.85 256.1 194.63 256.1H256.43C257.22 256.1 258.48 255.54 258.48 254.74V252.1H192.48Z" fill="white"/>
<path opacity="0.2" d="M192.48 252.1V254.74C192.48 255.54 193.85 256.1 194.63 256.1H235.39C236.18 256.1 237.48 255.54 237.48 254.74V252.1H192.48Z" fill="black"/>
<path d="M182.58 219.61L189.93 253.09C190.06 253.636 190.363 254.126 190.794 254.486C191.224 254.846 191.76 255.058 192.32 255.09H232.5C232.758 255.067 233.007 254.987 233.23 254.855C233.453 254.724 233.644 254.544 233.788 254.329C233.933 254.115 234.028 253.871 234.066 253.615C234.105 253.359 234.085 253.098 234.01 252.85L226.67 219.73C226.52 219.224 226.201 218.785 225.766 218.486C225.331 218.187 224.806 218.048 224.28 218.09H184.09C183 218.1 182.34 218.52 182.58 219.61Z" fill="#263238"/>
<path opacity="0.6" d="M182.58 219.61L189.93 253.09C190.06 253.636 190.363 254.126 190.794 254.486C191.224 254.846 191.76 255.058 192.32 255.09H232.5C232.758 255.067 233.007 254.987 233.23 254.855C233.453 254.724 233.644 254.544 233.788 254.329C233.933 254.115 234.028 253.871 234.066 253.615C234.105 253.359 234.085 253.098 234.01 252.85L226.67 219.73C226.52 219.224 226.201 218.785 225.766 218.486C225.331 218.187 224.806 218.048 224.28 218.09H184.09C183 218.1 182.34 218.52 182.58 219.61Z" fill="white"/>
<path opacity="0.4" d="M182.58 219.61L189.93 253.09C190.06 253.636 190.363 254.126 190.794 254.486C191.224 254.846 191.76 255.058 192.32 255.09H231.14C231.398 255.067 231.647 254.986 231.871 254.855C232.094 254.723 232.285 254.544 232.43 254.33C232.576 254.115 232.672 253.872 232.711 253.616C232.751 253.36 232.734 253.098 232.66 252.85L225.3 219.73C225.15 219.224 224.831 218.785 224.396 218.486C223.961 218.187 223.436 218.048 222.91 218.09H184.09C183 218.1 182.34 218.52 182.58 219.61Z" fill="white"/>
<path opacity="0.2" d="M206.21 241.07C204.34 241.07 202.42 239.07 201.93 236.59C201.44 234.11 202.57 232.1 204.45 232.1C204.792 232.107 205.131 232.175 205.45 232.3C205.623 233.184 206.002 234.015 206.557 234.726C207.111 235.436 207.825 236.006 208.64 236.39C208.645 236.456 208.645 236.523 208.64 236.59C209.22 239.06 208.09 241.07 206.21 241.07Z" fill="black"/>
<path d="M359.51 194.79L381.79 199.92C382.103 208.166 385.551 215.981 391.429 221.771C397.308 227.562 405.174 230.892 413.423 231.081C421.673 231.27 429.683 228.305 435.821 222.79C441.959 217.275 445.761 209.626 446.453 201.404C447.144 193.181 444.672 185.005 439.541 178.543C434.41 172.081 427.007 167.819 418.842 166.629C410.677 165.438 402.365 167.407 395.603 172.135C388.84 176.863 384.136 183.993 382.45 192.07L359.51 194.79Z" fill="#0D56C1"/>
<path opacity="0.7" d="M359.51 194.79L381.79 199.92C382.103 208.166 385.551 215.981 391.429 221.771C397.308 227.562 405.174 230.892 413.423 231.081C421.673 231.27 429.683 228.305 435.821 222.79C441.959 217.275 445.761 209.626 446.453 201.404C447.144 193.181 444.672 185.005 439.541 178.543C434.41 172.081 427.007 167.819 418.842 166.629C410.677 165.438 402.365 167.407 395.603 172.135C388.84 176.863 384.136 183.993 382.45 192.07L359.51 194.79Z" fill="white"/>
<path d="M434.43 177C431.978 176.999 429.55 177.474 427.28 178.4C426.225 174.512 423.793 171.139 420.437 168.909C417.081 166.679 413.029 165.745 409.036 166.279C405.042 166.814 401.379 168.78 398.727 171.814C396.075 174.847 394.616 178.741 394.62 182.77C394.62 183.11 394.62 183.45 394.67 183.77H394.62C390.717 183.825 386.977 185.341 384.138 188.019C381.298 190.697 379.565 194.342 379.282 198.234C378.998 202.127 380.184 205.985 382.605 209.046C385.026 212.107 388.507 214.15 392.36 214.77V215H434.43C439.469 215 444.302 212.998 447.865 209.435C451.428 205.872 453.43 201.039 453.43 196C453.43 190.961 451.428 186.128 447.865 182.565C444.302 179.002 439.469 177 434.43 177Z" fill="#0D56C1"/>
<path opacity="0.9" d="M434.43 177C431.978 176.999 429.55 177.474 427.28 178.4C426.225 174.512 423.793 171.139 420.437 168.909C417.081 166.679 413.029 165.745 409.036 166.279C405.042 166.814 401.379 168.78 398.727 171.814C396.075 174.847 394.616 178.741 394.62 182.77C394.62 183.11 394.62 183.45 394.67 183.77H394.62C390.717 183.825 386.977 185.341 384.138 188.019C381.298 190.697 379.565 194.342 379.282 198.234C378.998 202.127 380.184 205.985 382.605 209.046C385.026 212.107 388.507 214.15 392.36 214.77V215H434.43C439.469 215 444.302 212.998 447.865 209.435C451.428 205.872 453.43 201.039 453.43 196C453.43 190.961 451.428 186.128 447.865 182.565C444.302 179.002 439.469 177 434.43 177Z" fill="white"/>
<path d="M424.18 221.93V205.83H406.77V221.93H401.18L414.98 234.09L428.78 221.93H424.18Z" fill="#0D56C1"/>
<path d="M330.7 150.76L346.94 133.63C354.431 137.663 363.179 138.687 371.399 136.492C379.619 134.296 386.692 129.048 391.175 121.816C395.658 114.585 397.213 105.916 395.523 97.577C393.833 89.2384 389.026 81.8586 382.081 76.943C375.137 72.0275 366.579 69.9465 358.152 71.1247C349.726 72.3029 342.067 76.6514 336.737 83.2832C331.407 89.915 328.808 98.3305 329.47 106.813C330.132 115.295 334.006 123.205 340.3 128.93L330.7 150.76Z" fill="#0D56C1"/>
<path opacity="0.7" d="M330.7 150.76L346.94 133.63C354.431 137.663 363.179 138.687 371.399 136.492C379.619 134.296 386.692 129.048 391.175 121.816C395.658 114.585 397.213 105.916 395.523 97.577C393.833 89.2384 389.026 81.8586 382.081 76.943C375.137 72.0275 366.579 69.9465 358.152 71.1247C349.726 72.3029 342.067 76.6514 336.737 83.2832C331.407 89.915 328.808 98.3305 329.47 106.813C330.132 115.295 334.006 123.205 340.3 128.93L330.7 150.76Z" fill="white"/>
<path d="M334.84 81.9699L365.43 57.4099L396.87 81.9699L368.76 109.77L334.84 81.9699Z" fill="#0D56C1"/>
<path d="M394.07 68.7H336.97V102.44H394.07V68.7Z" fill="#0D56C1"/>
<path opacity="0.5" d="M394.07 68.7H336.97V102.44H394.07V68.7Z" fill="white"/>
<path d="M391.19 76.45H346.34V77.53H391.19V76.45Z" fill="white"/>
<path d="M391.18 79.6899H339.67V80.9499H391.18V79.6899Z" fill="white"/>
<path d="M391.18 83.1099H339.67V84.3699H391.18V83.1099Z" fill="white"/>
<path d="M391.18 86.3499H339.67V87.6099H391.18V86.3499Z" fill="white"/>
<path d="M391.18 89.72H339.67V90.98H391.18V89.72Z" fill="white"/>
<path d="M391.27 92.6599H339.76V93.9199H391.27V92.6599Z" fill="white"/>
<path d="M391.27 95.8999H339.76V97.1599H391.27V95.8999Z" fill="white"/>
<path d="M391.18 98.4199H339.67V99.6799H391.18V98.4199Z" fill="white"/>
<path d="M396.87 118.35H334.84V81.97L365.85 102.5L396.87 81.97V118.35Z" fill="#0D56C1"/>
<path opacity="0.2" d="M396.87 118.35H334.84V81.97L365.85 102.5L396.87 81.97V118.35Z" fill="white"/>
<path d="M274.57 156.05L265.57 131.64C273.208 126.219 278.489 118.088 280.338 108.907C282.186 99.7251 280.462 90.1841 275.518 82.2298C270.573 74.2756 262.78 68.5073 253.729 66.1015C244.677 63.6958 235.049 64.8338 226.807 69.2835C218.566 73.7333 212.332 81.1594 209.378 90.0472C206.425 98.9351 206.973 108.615 210.911 117.113C214.849 125.61 221.881 132.286 230.571 135.777C239.262 139.268 248.958 139.312 257.68 135.9L274.57 156.05Z" fill="#0D56C1"/>
<path opacity="0.7" d="M274.57 156.05L265.57 131.64C273.208 126.219 278.489 118.088 280.338 108.907C282.186 99.7251 280.462 90.1841 275.518 82.2298C270.573 74.2756 262.78 68.5073 253.729 66.1015C244.677 63.6958 235.049 64.8338 226.807 69.2835C218.566 73.7333 212.332 81.1594 209.378 90.0472C206.425 98.9351 206.973 108.615 210.911 117.113C214.849 125.61 221.881 132.286 230.571 135.777C239.262 139.268 248.958 139.312 257.68 135.9L274.57 156.05Z" fill="white"/>
<path d="M270.82 65.1001H220.79V129.68H270.82V65.1001Z" fill="#0D56C1"/>
<path opacity="0.4" d="M270.82 68.54H220.79V129.68H270.82V68.54Z" fill="white"/>
<path opacity="0.7" d="M246.57 72.6301H228.57C228.251 72.6288 227.936 72.6905 227.641 72.8115C227.346 72.9325 227.078 73.1106 226.852 73.3354C226.627 73.5603 226.447 73.8275 226.325 74.1217C226.203 74.416 226.14 74.7315 226.14 75.0502V78.6202C226.14 79.2646 226.396 79.8827 226.852 80.3384C227.307 80.7941 227.926 81.0502 228.57 81.0502H229.21C228.985 81.731 228.582 82.3389 228.042 82.8104C227.502 83.2819 226.845 83.5996 226.14 83.7302C228.45 83.6302 229.96 82.7302 230.69 81.0502H246.56C246.88 81.0515 247.197 80.9896 247.493 80.8681C247.789 80.7465 248.058 80.5677 248.285 80.342C248.511 80.1162 248.691 79.8479 248.814 79.5524C248.937 79.2569 249 78.9401 249 78.6202V75.0502C249 74.7315 248.937 74.416 248.815 74.1217C248.693 73.8275 248.513 73.5603 248.288 73.3354C248.062 73.1106 247.794 72.9325 247.499 72.8115C247.204 72.6905 246.889 72.6288 246.57 72.6301Z" fill="white"/>
<path opacity="0.7" d="M247 95.3401H228.19C227.66 95.3401 227.151 95.5508 226.776 95.9259C226.401 96.301 226.19 96.8097 226.19 97.3401V99.1201C226.19 99.6505 226.401 100.159 226.776 100.534C227.151 100.909 227.66 101.12 228.19 101.12H229.27C229.071 101.843 228.673 102.495 228.122 103.002C227.57 103.51 226.887 103.852 226.15 103.99C228.54 103.88 230.07 102.92 230.77 101.12H247C247.535 101.12 248.049 100.911 248.432 100.537C248.815 100.164 249.037 99.6551 249.05 99.1201V97.3901C249.05 96.8464 248.834 96.325 248.45 95.9405C248.065 95.5561 247.544 95.3401 247 95.3401Z" fill="white"/>
<path opacity="0.7" d="M263.39 105.94H252.67C252.12 105.94 251.593 106.158 251.203 106.546C250.813 106.934 250.593 107.46 250.59 108.01V109.01C250.593 109.56 250.813 110.087 251.203 110.475C251.593 110.862 252.12 111.08 252.67 111.08H260.2C260.9 112.88 262.43 113.85 264.82 113.96C264.084 113.82 263.402 113.475 262.852 112.966C262.302 112.457 261.907 111.803 261.71 111.08H263.39C263.939 111.08 264.465 110.862 264.854 110.474C265.242 110.086 265.46 109.559 265.46 109.01V108.01C265.46 107.461 265.242 106.935 264.854 106.546C264.465 106.158 263.939 105.94 263.39 105.94Z" fill="white"/>
<path opacity="0.7" d="M263.42 82.5801H237.77C237.235 82.5799 236.721 82.789 236.338 83.1627C235.955 83.5364 235.733 84.0451 235.72 84.5801V89.3101C235.733 89.8451 235.955 90.3537 236.338 90.7274C236.721 91.1011 237.235 91.3102 237.77 91.3101H260.13C260.79 93.2301 262.35 94.3101 264.82 94.3701C264.054 94.2229 263.347 93.8547 262.787 93.311C262.228 92.7673 261.839 92.0718 261.67 91.3101H263.42C263.95 91.3101 264.459 91.0994 264.834 90.7243C265.209 90.3492 265.42 89.8405 265.42 89.3101V84.6201C265.425 84.3541 265.377 84.0897 265.279 83.8424C265.181 83.5951 265.035 83.3699 264.849 83.1799C264.662 82.99 264.44 82.8391 264.195 82.7361C263.949 82.6331 263.686 82.58 263.42 82.5801Z" fill="white"/>
<path opacity="0.8" d="M265.53 121.72H226.08C225.086 121.72 224.28 122.526 224.28 123.52V124.34C224.28 125.334 225.086 126.14 226.08 126.14H265.53C266.524 126.14 267.33 125.334 267.33 124.34V123.52C267.33 122.526 266.524 121.72 265.53 121.72Z" fill="white"/>
<path d="M228.15 186.75L204.77 177.69C205.709 168.714 203.189 159.719 197.723 152.538C192.257 145.357 184.257 140.531 175.356 139.046C166.454 137.56 157.321 139.527 149.82 144.544C142.318 149.561 137.013 157.251 134.987 166.045C132.961 174.84 134.366 184.076 138.916 191.869C143.465 199.663 150.817 205.428 159.471 207.987C168.125 210.547 177.43 209.708 185.487 205.643C193.544 201.578 199.747 194.592 202.83 186.11L228.15 186.75Z" fill="#0D56C1"/>
<path opacity="0.7" d="M228.15 186.75L204.77 177.69C205.709 168.714 203.189 159.719 197.723 152.538C192.257 145.357 184.257 140.531 175.356 139.046C166.454 137.56 157.321 139.527 149.82 144.544C142.318 149.561 137.013 157.251 134.987 166.045C132.961 174.84 134.366 184.076 138.916 191.869C143.465 199.663 150.817 205.428 159.471 207.987C168.125 210.547 177.43 209.708 185.487 205.643C193.544 201.578 199.747 194.592 202.83 186.11L228.15 186.75Z" fill="white"/>
<path d="M204.48 183.56H133.81V185.1H204.48V183.56Z" fill="#0D56C1"/>
<path opacity="0.3" d="M204.48 183.56H133.81V185.1H204.48V183.56Z" fill="black"/>
<path d="M151.33 170.35H143.34V183.56H151.33V170.35Z" fill="#0D56C1"/>
<path opacity="0.4" d="M151.33 170.35H143.34V183.56H151.33V170.35Z" fill="white"/>
<path d="M165.46 162.98H157.47V183.57H165.46V162.98Z" fill="#0D56C1"/>
<path opacity="0.4" d="M165.46 162.98H157.47V183.57H165.46V162.98Z" fill="white"/>
<path d="M180.21 155.61H172.22V183.57H180.21V155.61Z" fill="#0D56C1"/>
<path opacity="0.4" d="M180.21 155.61H172.22V183.57H180.21V155.61Z" fill="white"/>
<path d="M194.96 148.54H186.97V183.57H194.96V148.54Z" fill="#0D56C1"/>
<path opacity="0.2" d="M194.96 148.54H186.97V183.57H194.96V148.54Z" fill="#263238"/>
</svg>
