<svg width="678" height="290" viewBox="0 0 678 290" fill="none" xmlns="http://www.w3.org/2000/svg">
<path fill-rule="evenodd" clip-rule="evenodd" d="M155.273 74.0234C155.273 86.6536 153.19 98.0469 149.023 108.203C144.857 118.359 138.867 127.018 131.055 134.18C123.372 141.341 113.867 146.875 102.539 150.781C91.3411 154.688 77.9297 156.641 62.3047 156.641H33.5938V247.656C33.5938 248.698 33.2682 249.609 32.6172 250.391C32.0964 251.172 31.1849 251.823 29.8828 252.344C28.7109 252.734 27.0182 253.06 24.8047 253.32C22.7214 253.711 20.0521 253.906 16.7969 253.906C13.5417 253.906 10.8073 253.711 8.59375 253.32C6.51042 253.06 4.81771 252.734 3.51562 252.344C2.21354 251.823 1.30208 251.172 0.78125 250.391C0.260417 249.609 0 248.698 0 247.656V14.4531C0 9.24479 1.36719 5.53385 4.10156 3.32031C6.83594 1.10677 9.89583 0 13.2812 0H67.3828C72.8516 0 78.0599 0.260417 83.0078 0.78125C88.0859 1.17188 94.0104 2.14844 100.781 3.71094C107.682 5.14323 114.648 7.94271 121.68 12.1094C128.841 16.1458 134.896 21.1589 139.844 27.1484C144.792 33.138 148.568 40.1042 151.172 48.0469C153.906 55.8594 155.273 64.5182 155.273 74.0234ZM117.886 51.2905H78.3962L65.4932 38.9758C65.3291 38.8225 65.1131 38.7363 64.8883 38.7344H36.9263C34.9792 38.7344 33.4062 40.3039 33.4062 42.2466V107.222C33.4062 109.165 34.9792 110.734 36.9263 110.734H117.886C119.833 110.734 121.406 109.165 121.406 107.222V54.8027C121.406 52.86 119.833 51.2905 117.886 51.2905ZM322.32 271.188C323.297 267.216 323.785 261.975 323.785 255.465V163.668C323.785 163.212 323.655 162.789 323.395 162.398C323.134 162.008 322.678 161.682 322.027 161.422C321.441 161.161 320.628 160.966 319.586 160.836C318.544 160.706 317.242 160.641 315.68 160.641C314.117 160.641 312.815 160.706 311.773 160.836C310.732 160.966 309.885 161.161 309.234 161.422C308.648 161.682 308.225 162.008 307.965 162.398C307.704 162.789 307.574 163.212 307.574 163.668V255.367C307.574 260.12 307.346 263.668 306.891 266.012C306.435 268.355 305.719 270.243 304.742 271.676C303.766 273.173 302.496 274.247 300.934 274.898C299.436 275.549 297.613 275.875 295.465 275.875C293.967 275.875 292.633 275.777 291.461 275.582C290.354 275.452 289.605 275.387 289.215 275.387C288.759 275.387 288.401 275.484 288.141 275.68C287.815 275.94 287.555 276.331 287.359 276.852C287.099 277.372 286.936 278.056 286.871 278.902C286.741 279.749 286.676 280.758 286.676 281.93C286.676 282.776 286.708 283.492 286.773 284.078C286.773 284.664 286.839 285.217 286.969 285.738C287.099 286.324 287.327 286.812 287.652 287.203C287.913 287.659 288.434 288.049 289.215 288.375C289.996 288.701 291.103 288.993 292.535 289.254C294.033 289.514 295.823 289.645 297.906 289.645C302.529 289.645 306.467 288.928 309.723 287.496C312.978 286.129 315.647 284.078 317.73 281.344C319.814 278.609 321.344 275.224 322.32 271.188ZM323.492 141.695C324.924 140.328 325.641 137.757 325.641 133.98C325.641 130.27 324.957 127.763 323.59 126.461C322.223 125.094 319.618 124.41 315.777 124.41C311.936 124.41 309.299 125.094 307.867 126.461C306.5 127.828 305.816 130.4 305.816 134.176C305.816 137.887 306.5 140.426 307.867 141.793C309.234 143.095 311.806 143.746 315.582 143.746C319.423 143.746 322.06 143.062 323.492 141.695ZM185.309 169.43C185.309 170.862 185.276 172.066 185.211 173.043C185.146 174.02 185.016 174.801 184.82 175.387C184.625 175.908 184.365 176.331 184.039 176.656C183.779 176.917 183.388 177.047 182.867 177.047C182.346 177.047 181.695 176.917 180.914 176.656C180.198 176.331 179.352 176.038 178.375 175.777C177.464 175.452 176.422 175.159 175.25 174.898C174.078 174.638 172.809 174.508 171.441 174.508C169.814 174.508 168.219 174.833 166.656 175.484C165.094 176.135 163.434 177.21 161.676 178.707C159.983 180.204 158.193 182.19 156.305 184.664C154.417 187.138 152.333 190.165 150.055 193.746V251.559C150.055 252.079 149.924 252.535 149.664 252.926C149.404 253.251 148.98 253.544 148.395 253.805C147.809 254.065 146.995 254.26 145.953 254.391C144.911 254.521 143.577 254.586 141.949 254.586C140.387 254.586 139.085 254.521 138.043 254.391C137.001 254.26 136.155 254.065 135.504 253.805C134.918 253.544 134.495 253.251 134.234 252.926C134.039 252.535 133.941 252.079 133.941 251.559V163.668C133.941 163.147 134.039 162.724 134.234 162.398C134.43 162.008 134.82 161.682 135.406 161.422C135.992 161.096 136.741 160.901 137.652 160.836C138.564 160.706 139.768 160.641 141.266 160.641C142.698 160.641 143.87 160.706 144.781 160.836C145.758 160.901 146.507 161.096 147.027 161.422C147.548 161.682 147.906 162.008 148.102 162.398C148.362 162.724 148.492 163.147 148.492 163.668V176.461C150.901 172.945 153.147 170.081 155.23 167.867C157.379 165.654 159.397 163.928 161.285 162.691C163.173 161.389 165.029 160.51 166.852 160.055C168.74 159.534 170.628 159.273 172.516 159.273C173.362 159.273 174.306 159.339 175.348 159.469C176.454 159.534 177.594 159.697 178.766 159.957C179.938 160.217 180.979 160.51 181.891 160.836C182.867 161.161 183.551 161.487 183.941 161.812C184.332 162.138 184.592 162.464 184.723 162.789C184.853 163.049 184.951 163.408 185.016 163.863C185.146 164.319 185.211 165.003 185.211 165.914C185.276 166.76 185.309 167.932 185.309 169.43ZM282.086 206.637C282.086 213.798 281.142 220.406 279.254 226.461C277.366 232.451 274.534 237.626 270.758 241.988C267.047 246.35 262.359 249.768 256.695 252.242C251.096 254.651 244.586 255.855 237.164 255.855C229.938 255.855 223.622 254.781 218.219 252.633C212.88 250.484 208.421 247.359 204.84 243.258C201.259 239.156 198.59 234.176 196.832 228.316C195.074 222.457 194.195 215.816 194.195 208.395C194.195 201.233 195.107 194.658 196.93 188.668C198.818 182.613 201.617 177.405 205.328 173.043C209.104 168.681 213.792 165.296 219.391 162.887C224.99 160.478 231.533 159.273 239.02 159.273C246.246 159.273 252.529 160.348 257.867 162.496C263.271 164.645 267.763 167.77 271.344 171.871C274.924 175.973 277.594 180.953 279.352 186.812C281.174 192.672 282.086 199.28 282.086 206.637ZM265.094 207.711C265.094 202.958 264.638 198.466 263.727 194.234C262.88 190.003 261.448 186.292 259.43 183.102C257.411 179.911 254.677 177.405 251.227 175.582C247.776 173.694 243.479 172.75 238.336 172.75C233.583 172.75 229.482 173.596 226.031 175.289C222.646 176.982 219.846 179.391 217.633 182.516C215.419 185.576 213.759 189.221 212.652 193.453C211.611 197.685 211.09 202.307 211.09 207.32C211.09 212.138 211.513 216.663 212.359 220.895C213.271 225.126 214.736 228.837 216.754 232.027C218.837 235.152 221.604 237.659 225.055 239.547C228.505 241.37 232.802 242.281 237.945 242.281C242.633 242.281 246.702 241.435 250.152 239.742C253.603 238.049 256.435 235.673 258.648 232.613C260.862 229.553 262.49 225.908 263.531 221.676C264.573 217.444 265.094 212.789 265.094 207.711ZM428.668 203.805C428.668 206.344 428.017 208.167 426.715 209.273C425.478 210.315 424.046 210.836 422.418 210.836H364.801C364.801 215.719 365.289 220.113 366.266 224.02C367.242 227.926 368.87 231.279 371.148 234.078C373.427 236.878 376.389 239.026 380.035 240.523C383.681 242.021 388.141 242.77 393.414 242.77C397.581 242.77 401.292 242.444 404.547 241.793C407.802 241.077 410.602 240.296 412.945 239.449C415.354 238.603 417.307 237.854 418.805 237.203C420.367 236.487 421.539 236.129 422.32 236.129C422.776 236.129 423.167 236.259 423.492 236.52C423.883 236.715 424.176 237.04 424.371 237.496C424.566 237.952 424.697 238.603 424.762 239.449C424.892 240.23 424.957 241.207 424.957 242.379C424.957 243.225 424.924 243.974 424.859 244.625C424.794 245.211 424.697 245.764 424.566 246.285C424.501 246.741 424.339 247.164 424.078 247.555C423.883 247.945 423.59 248.336 423.199 248.727C422.874 249.052 421.832 249.638 420.074 250.484C418.316 251.266 416.038 252.047 413.238 252.828C410.439 253.609 407.184 254.293 403.473 254.879C399.827 255.53 395.921 255.855 391.754 255.855C384.527 255.855 378.18 254.846 372.711 252.828C367.307 250.81 362.75 247.815 359.039 243.844C355.328 239.872 352.529 234.892 350.641 228.902C348.753 222.913 347.809 215.947 347.809 208.004C347.809 200.452 348.785 193.681 350.738 187.691C352.691 181.637 355.491 176.526 359.137 172.359C362.848 168.128 367.307 164.905 372.516 162.691C377.724 160.413 383.551 159.273 389.996 159.273C396.897 159.273 402.757 160.38 407.574 162.594C412.457 164.807 416.461 167.802 419.586 171.578C422.711 175.289 424.99 179.684 426.422 184.762C427.919 189.775 428.668 195.146 428.668 200.875V203.805ZM406.793 179.098C402.887 174.28 397.06 171.871 389.312 171.871C385.341 171.871 381.858 172.62 378.863 174.117C375.868 175.615 373.362 177.6 371.344 180.074C369.326 182.548 367.763 185.445 366.656 188.766C365.549 192.021 364.931 195.439 364.801 199.02H412.457C412.652 190.556 410.764 183.915 406.793 179.098ZM515.973 243.16C516.168 242.574 516.298 241.891 516.363 241.109C516.428 240.263 516.461 239.286 516.461 238.18C516.461 236.878 516.396 235.771 516.266 234.859C516.201 233.883 516.038 233.102 515.777 232.516C515.582 231.865 515.322 231.409 514.996 231.148C514.671 230.888 514.28 230.758 513.824 230.758C513.043 230.758 511.936 231.344 510.504 232.516C509.137 233.622 507.411 234.892 505.328 236.324C503.31 237.691 500.901 238.961 498.102 240.133C495.302 241.305 492.047 241.891 488.336 241.891C484.43 241.891 480.947 241.207 477.887 239.84C474.892 238.408 472.353 236.259 470.27 233.395C468.186 230.53 466.591 226.982 465.484 222.75C464.443 218.453 463.922 213.473 463.922 207.809C463.922 196.48 465.973 187.854 470.074 181.93C474.241 175.94 480.198 172.945 487.945 172.945C491.721 172.945 494.977 173.499 497.711 174.605C500.51 175.647 502.887 176.819 504.84 178.121C506.793 179.423 508.388 180.628 509.625 181.734C510.927 182.776 512.066 183.297 513.043 183.297C513.889 183.297 514.605 182.809 515.191 181.832C515.777 180.79 516.07 179 516.07 176.461C516.07 175.289 516.038 174.312 515.973 173.531C515.908 172.75 515.777 172.066 515.582 171.48C515.387 170.829 515.126 170.276 514.801 169.82C514.54 169.365 514.02 168.746 513.238 167.965C512.457 167.184 511.188 166.24 509.43 165.133C507.737 164.026 505.784 163.049 503.57 162.203C501.357 161.357 498.915 160.673 496.246 160.152C493.642 159.632 490.94 159.371 488.141 159.371C482.346 159.371 476.943 160.348 471.93 162.301C466.982 164.189 462.652 167.118 458.941 171.09C455.296 175.061 452.398 180.172 450.25 186.422C448.167 192.607 447.125 200.029 447.125 208.688C447.125 216.305 447.971 223.043 449.664 228.902C451.422 234.697 453.928 239.612 457.184 243.648C460.504 247.62 464.605 250.647 469.488 252.73C474.371 254.814 479.97 255.855 486.285 255.855C489.345 255.855 492.307 255.562 495.172 254.977C498.036 254.391 500.673 253.642 503.082 252.73C505.556 251.754 507.77 250.68 509.723 249.508C511.676 248.271 513.043 247.262 513.824 246.48C514.671 245.634 515.191 245.016 515.387 244.625C515.647 244.169 515.842 243.681 515.973 243.16ZM583.551 245.113C583.551 247.001 583.421 248.499 583.16 249.605C582.9 250.712 582.509 251.526 581.988 252.047C581.467 252.568 580.686 253.056 579.645 253.512C578.603 253.967 577.398 254.326 576.031 254.586C574.729 254.911 573.329 255.172 571.832 255.367C570.335 255.562 568.837 255.66 567.34 255.66C562.783 255.66 558.876 255.074 555.621 253.902C552.366 252.665 549.697 250.842 547.613 248.434C545.53 245.96 544 242.867 543.023 239.156C542.112 235.38 541.656 230.953 541.656 225.875V174.508H529.352C528.375 174.508 527.594 173.987 527.008 172.945C526.422 171.904 526.129 170.211 526.129 167.867C526.129 166.63 526.194 165.589 526.324 164.742C526.52 163.896 526.747 163.212 527.008 162.691C527.268 162.105 527.594 161.715 527.984 161.52C528.44 161.259 528.928 161.129 529.449 161.129H541.656V140.23C541.656 139.775 541.754 139.352 541.949 138.961C542.21 138.57 542.633 138.245 543.219 137.984C543.87 137.659 544.716 137.431 545.758 137.301C546.799 137.171 548.102 137.105 549.664 137.105C551.292 137.105 552.626 137.171 553.668 137.301C554.71 137.431 555.523 137.659 556.109 137.984C556.695 138.245 557.118 138.57 557.379 138.961C557.639 139.352 557.77 139.775 557.77 140.23V161.129H580.328C580.849 161.129 581.305 161.259 581.695 161.52C582.086 161.715 582.411 162.105 582.672 162.691C582.997 163.212 583.225 163.896 583.355 164.742C583.486 165.589 583.551 166.63 583.551 167.867C583.551 170.211 583.258 171.904 582.672 172.945C582.086 173.987 581.305 174.508 580.328 174.508H557.77V223.531C557.77 229.586 558.648 234.176 560.406 237.301C562.229 240.361 565.452 241.891 570.074 241.891C571.572 241.891 572.906 241.76 574.078 241.5C575.25 241.174 576.292 240.849 577.203 240.523C578.115 240.198 578.896 239.905 579.547 239.645C580.198 239.319 580.784 239.156 581.305 239.156C581.63 239.156 581.923 239.254 582.184 239.449C582.509 239.579 582.737 239.872 582.867 240.328C583.062 240.784 583.225 241.402 583.355 242.184C583.486 242.965 583.551 243.941 583.551 245.113ZM633.16 286.324L644.879 254L676.422 166.598C676.812 165.426 677.008 164.449 677.008 163.668C677.008 162.887 676.715 162.268 676.129 161.812C675.608 161.357 674.762 161.064 673.59 160.934C672.418 160.738 670.921 160.641 669.098 160.641C667.014 160.641 665.419 160.738 664.312 160.934C663.206 161.064 662.359 161.324 661.773 161.715C661.253 162.04 660.797 162.822 660.406 164.059L636.188 234.957H635.895L610.797 164.449C610.471 163.603 610.146 162.952 609.82 162.496C609.56 161.975 609.104 161.585 608.453 161.324C607.802 161.064 606.923 160.901 605.816 160.836C604.71 160.706 603.18 160.641 601.227 160.641C599.273 160.641 597.711 160.738 596.539 160.934C595.367 161.064 594.521 161.357 594 161.812C593.479 162.268 593.219 162.887 593.219 163.668C593.219 164.449 593.479 165.523 594 166.891L625.348 250.875C625.543 251.526 625.901 252.145 626.422 252.73C626.943 253.316 627.496 253.74 628.082 254L615.973 284.566C615.582 285.478 615.419 286.259 615.484 286.91C615.549 287.561 615.842 288.082 616.363 288.473C616.949 288.863 617.763 289.124 618.805 289.254C619.846 289.449 621.214 289.547 622.906 289.547C626.161 289.547 628.57 289.254 630.133 288.668C631.76 288.147 632.77 287.366 633.16 286.324Z" fill="white"/>
</svg>
