<svg width="1072" height="889" viewBox="0 0 1072 889" fill="none" xmlns="http://www.w3.org/2000/svg">
<path fill-rule="evenodd" clip-rule="evenodd" d="M776.122 223.506C855.615 285.973 994.627 256.139 1048 341.784C1099.74 424.81 1053.17 532.464 1026.17 624.736C999.059 717.376 980.902 835.687 892.273 873.903C800.104 913.645 701.612 805.732 600.437 808.308C514.117 810.506 446.616 901.524 361.048 887.431C269.527 872.356 195.045 803.256 135.142 731.67C69.2972 652.984 -17.2231 559.526 4.2199 461.009C26.3888 359.158 162.196 335.988 236.909 264.114C291.218 211.87 319.762 139.196 382.433 97.1713C454.367 48.9362 537.243 -20.5371 621.223 6.41212C707.381 34.0604 704.701 167.382 776.122 223.506Z" fill="#2F3855"/>
</svg>
